# xmcd CD database file
#
# Track frame offsets:
#	150
#	22877
#	43716
#	62080
#	86176
#	113107
#	134021
#	151035
#	177068
#	195880
#	214865
#	225393
#	245436
#	265854
#	281377
#	297848
#	311586
#	332461
#
# Disc length: 4703 seconds
#
# Revision: 0
# Processed by: cddbd v1.5.2PL0 Copyright (c) Steve Scherf et al.
# Submitted via: Feurio! 1.68 - http://www.feurio.com
#
DISCID=f1125d12
DTITLE=Ry Cooder - The Slide Area - Boomer's Story
DYEAR=1900
DGENRE=
TTITLE0=Ufo Has Landed in the Ghetto
TTITLE1=I Need a Woman
TTITLE2=Gypsy Woman
TTITLE3=Blue Suede Shoes
TTITLE4=Mama, Don't Treat Your Daughter Mean
TTITLE5=I'm Drinking Again
TTITLE6=Which Came First
TTITLE7=That's the Way Love Turned out for Me
TTITLE8=Boomers Story
TTITLE9=Cherry Ball Blues
TTITLE10=Crow Black Chicken
TTITLE11=Ax Sweet Mama
TTITLE12=Maria Elena
TTITLE13=Dark End Of The Street
TTITLE14=Rally 'round The Flag
TTITLE15=Comin' In On A Wing And A Prayer
TTITLE16=President Kennedy
TTITLE17=Good Morning Mr Railroad Man
EXTD=
EXTT0=
EXTT1=
EXTT2=
EXTT3=
EXTT4=
EXTT5=
EXTT6=
EXTT7=
EXTT8=
EXTT9=
EXTT10=
EXTT11=
EXTT12=
EXTT13=
EXTT14=
EXTT15=
EXTT16=
EXTT17=
PLAYORDER=
